<mxfile host="app.diagrams.net" modified="2023-05-26T06:33:27.918Z" agent="Mozilla/5.0 (Windows NT 10.0; Win64; x64) AppleWebKit/537.36 (KHTML, like Gecko) Chrome/113.0.0.0 Safari/537.36" version="21.3.4" etag="AWy_fbLs0L1YE8XLp4gf" type="github">
  <diagram name="第 1 页" id="NYcTfuZB9YxAyLAE5Aj1">
    <mxGraphModel>
      <root>
        <mxCell id="0" />
        <mxCell id="1" parent="0" />
      </root>
    </mxGraphModel>
  </diagram>
</mxfile>
